<svg xmlns="http://www.w3.org/2000/svg" viewBox="0 0 64 64" role="img" aria-label="BCHubKey">
  <defs>
    <linearGradient id="bg" x1="0" y1="0" x2="1" y2="1">
      <stop offset="0%" stop-color="#0e5f59"/>
      <stop offset="100%" stop-color="#0a3e3a"/>
    </linearGradient>
    <linearGradient id="ring" x1="0" y1="0" x2="1" y2="1">
      <stop offset="0%" stop-color="#f6c273"/>
      <stop offset="100%" stop-color="#d0862e"/>
    </linearGradient>
  </defs>

  <rect width="64" height="64" rx="14" fill="url(#bg)"/>
  <circle cx="32" cy="28" r="17" fill="none" stroke="url(#ring)" stroke-width="4"/>
  <rect x="45" y="37" width="8" height="16" rx="3" fill="url(#ring)"/>
  <rect x="43" y="44" width="12" height="4" rx="2" fill="#fff2d8"/>

  <path d="M24 19h8.3c4.3 0 7 2.1 7 5.4 0 2.1-1.3 3.8-3.3 4.6 2.6.7 4.1 2.7 4.1 5.4 0 3.8-3 6.2-7.7 6.2H24V19zm7.4 8.6c2.1 0 3.3-.8 3.3-2.4 0-1.6-1.2-2.4-3.3-2.4h-2.8v4.8h2.8zm.6 9.1c2.2 0 3.5-.9 3.5-2.7 0-1.8-1.3-2.7-3.5-2.7h-3.4v5.4H32z" fill="#f8fbff"/>
</svg>
